<?xml version="1.0" encoding="UTF-8" standalone="no"?>
<!-- Created with Inkscape (http://www.inkscape.org/) -->

<svg
   width="22.6mm"
   height="22.6mm"
   viewBox="0 0 22.6 22.6"
   version="1.1"
   id="svg5"
   inkscape:version="1.2.2 (732a01da63, 2022-12-09, custom)"
   sodipodi:docname="blog-world.svg"
   xmlns:inkscape="http://www.inkscape.org/namespaces/inkscape"
   xmlns:sodipodi="http://sodipodi.sourceforge.net/DTD/sodipodi-0.dtd"
   xmlns:xlink="http://www.w3.org/1999/xlink"
   xmlns="http://www.w3.org/2000/svg"
   xmlns:svg="http://www.w3.org/2000/svg">
  <sodipodi:namedview
     id="namedview7"
     pagecolor="#ffffff"
     bordercolor="#000000"
     borderopacity="0.25"
     inkscape:showpageshadow="2"
     inkscape:pageopacity="0.0"
     inkscape:pagecheckerboard="0"
     inkscape:deskcolor="#d1d1d1"
     inkscape:document-units="mm"
     showgrid="false"
     inkscape:zoom="7.6892998"
     inkscape:cx="36.674341"
     inkscape:cy="43.697087"
     inkscape:window-width="1920"
     inkscape:window-height="1043"
     inkscape:window-x="0"
     inkscape:window-y="184"
     inkscape:window-maximized="1"
     inkscape:current-layer="g44052" />
  <defs
     id="defs2">
    <rect
       x="70.595161"
       y="32.289612"
       width="8.2921867"
       height="2.8224213"
       id="rect6963" />
    <rect
       x="81.878159"
       y="24.322203"
       width="10.036493"
       height="3.8897867"
       id="rect5826" />
  </defs>
  <g
     inkscape:label="Layer 1"
     inkscape:groupmode="layer"
     id="layer1"
     transform="translate(-106.39054,-123.72324)">
    <text
       xml:space="preserve"
       style="font-size:1px;fill:none;fill-opacity:1;stroke:#000000;stroke-width:0.600001;stroke-linecap:butt;stroke-miterlimit:3.5;stroke-dasharray:none"
       x="116.65681"
       y="124.37167"
       id="text5038"><tspan
         sodipodi:role="line"
         id="tspan5036"
         style="font-size:1px;stroke-width:0.6"
         x="116.65681"
         y="124.37167" /></text>
    <text
       xml:space="preserve"
       style="font-size:1px;fill:none;fill-opacity:1;stroke:#000000;stroke-width:0.600001;stroke-linecap:butt;stroke-miterlimit:3.5;stroke-dasharray:none"
       x="116.78931"
       y="124.3597"
       id="text5092"><tspan
         sodipodi:role="line"
         id="tspan5090"
         style="stroke-width:0.6"
         x="116.78931"
         y="124.3597" /></text>
    <text
       xml:space="preserve"
       transform="matrix(0.26458333,0,0,0.26458333,97.690537,115.07186)"
       id="text5824"
       style="font-style:normal;font-variant:normal;font-weight:normal;font-stretch:normal;font-size:3.84px;font-family:sans-serif;-inkscape-font-specification:sans-serif;white-space:pre;shape-inside:url(#rect5826);display:inline;fill:none;fill-opacity:1;stroke:#000000;stroke-width:2.26772;stroke-linecap:butt;stroke-miterlimit:3.5;stroke-dasharray:none"><tspan
         x="81.878906"
         y="31.610391"
         id="tspan44098"><tspan
           dx="0 2.3531249 2.0006249 2.4375 2.3531251 2.0006247"
           id="tspan44096">asdasd</tspan></tspan></text>
    <text
       xml:space="preserve"
       style="font-style:normal;font-variant:normal;font-weight:normal;font-stretch:normal;font-size:1.016px;font-family:Ani;-inkscape-font-specification:Ani;fill:none;fill-opacity:1;stroke:#000000;stroke-width:0.600001;stroke-linecap:butt;stroke-miterlimit:3.5;stroke-dasharray:none"
       x="117.55943"
       y="121.54796"
       id="text5832"><tspan
         sodipodi:role="line"
         id="tspan5830"
         style="font-style:normal;font-variant:normal;font-weight:normal;font-stretch:normal;font-family:Ani;-inkscape-font-specification:Ani;stroke-width:0.6"
         x="117.55943"
         y="121.54796" /></text>
    <g
       id="g44052"
       inkscape:transform-center-y="-0.10566733"
       transform="rotate(22.550168,117.69054,135.07186)">
      <g
         id="g4221"
         transform="translate(9.7500005,9.7499987)">
        <circle
           style="fill:none;stroke:#000000;stroke-width:0.499999;stroke-linecap:round"
           id="path234"
           cx="107.94054"
           cy="125.32186"
           r="10" />
        <path
           style="fill:#000000;fill-opacity:1;stroke:#000000;stroke-width:0.499999;stroke-linecap:round"
           d="m 112.34737,116.47024 c -0.0221,0.0703 -0.32909,0.51497 -0.43846,0.59181 -0.0963,0.0677 -1.40883,0.15738 -1.62515,0.0884 -0.50964,-0.17512 -3.16333,-1.1004 -4.5189,-1.58519 l 2.285,-0.16594 1.87652,0.22264 1.20265,0.38799 z"
           id="path339"
           sodipodi:nodetypes="cscccccc" />
        <path
           style="fill:#000000;fill-opacity:1;stroke:#000000;stroke-width:0.499999;stroke-linecap:round"
           d="m 103.39655,116.6787 c 0.55456,0.19587 1.21536,0.29227 1.63562,0.70287 0.28713,0.28052 -0.61365,1.08828 -0.3433,1.27085 0.41606,0.28096 1.21872,0.45034 1.57922,0.33948 0.45616,-0.14028 0.23421,-1.1244 0.63709,-1.27957 0.64126,-0.24699 2.43313,0.62215 2.56202,0.84063 0.0849,0.14394 -0.0417,1.27546 -0.18169,1.3843 -0.21587,0.16782 -1.01197,0.17485 -1.2778,0.19903 -0.43493,0.12251 -0.84046,2.60161 -1.90968,2.9231 -0.46121,0.009 -3.01961,-1.06332 -3.18013,-0.55484 -0.12614,0.39959 -0.33662,0.64657 0.0329,0.96453 0.44631,0.384 1.79053,1.00926 2.20547,1.2001 0.80337,0.36949 2.49192,1.24652 2.65198,1.9676 0.0555,0.25002 -0.73039,0.4775 -0.82531,0.26763 -0.62374,-0.92219 -2.65976,-0.87666 -3.32475,-1.26743 -0.70115,-0.35836 -2.53573,-1.01148 -2.75644,-1.25785 -0.2028,-0.22638 -1.205375,-2.00147 -1.254105,-2.35388 -0.05442,-0.39353 0.888115,-2.2888 1.059775,-3.36609 z"
           id="path555"
           sodipodi:nodetypes="cssssssccssssccssc" />
        <path
           style="fill:#000000;fill-opacity:1;stroke:#000000;stroke-width:0.499999;stroke-linecap:round"
           d="m 108.45608,124.50995 c -0.10658,-0.10543 0.43407,-0.97028 0.55274,-1.07553 0.13465,-0.11943 1.41828,0.16316 1.46418,0.30739 0.059,0.18529 -0.54484,0.6109 -0.62268,0.66605 -0.1211,0.0858 -1.28397,0.21118 -1.39424,0.10209 z"
           id="path557"
           sodipodi:nodetypes="sssss" />
        <path
           style="fill:#000000;fill-opacity:1;stroke:#000000;stroke-width:0.499999;stroke-linecap:round"
           d="m 108.50913,126.78739 c 0.30355,-0.22858 3.28265,-0.1641 3.4448,0.0451 0.1719,0.22178 0.24484,0.78222 0.42381,0.99993 0.19234,0.23396 1.59658,0.26027 1.79236,0.6087 0.23206,0.41301 -0.18866,2.51216 -0.48869,2.82556 -0.1941,0.20276 -0.6955,0.14831 -0.96044,0.24151 -1.13374,0.37764 -2.95618,3.30172 -3.34301,2.97078 -0.35649,-0.44687 0.19569,-2.75252 -0.0699,-3.10935 -0.14745,-0.19808 -0.65773,0.0584 -0.7885,-0.15103 -0.1955,-0.31318 -1.24309,-1.84461 -1.23294,-2.17877 0.01,-0.31847 0.62695,-0.31933 0.80653,-0.56449 0.34633,-0.53734 0.0294,-1.29086 0.41598,-1.68794 z"
           id="path559"
           sodipodi:nodetypes="cssssccssscc" />
      </g>
      <g
         id="g40317"
         inkscape:transform-center-x="0.00017046374"
         inkscape:transform-center-y="-10.725437"
         display="none">
        <path
           style="fill:none;stroke:#000000;stroke-width:0.5;stroke-linecap:round;stroke-miterlimit:3.5;stroke-dasharray:none;stroke-opacity:1"
           id="path7196"
           sodipodi:type="arc"
           sodipodi:cx="117.69054"
           sodipodi:cy="135.02324"
           sodipodi:rx="10.75"
           sodipodi:ry="10.75"
           sodipodi:start="4.6774824"
           sodipodi:end="4.7472956"
           sodipodi:arc-type="arc"
           d="m 117.31537,124.27979 a 10.75,10.75 0 0 1 0.75034,0"
           sodipodi:open="true"
           inkscape:transform-center-y="-10.732446" />
        <text
           xml:space="preserve"
           style="font-size:0.264583px;font-family:'Abyssinica SIL';-inkscape-font-specification:'Abyssinica SIL, Normal';text-align:center;text-anchor:middle;fill:#ffffff;fill-opacity:1;stroke:none;stroke-width:0.499999;stroke-linecap:butt;stroke-miterlimit:3.5;stroke-dasharray:none;stroke-opacity:1"
           id="text15425"><textPath
             xlink:href="#path7196"
             startOffset="50%"
             id="textPath15427"
             dy="0.079999998">abcdefghijklmnopqrstuvwxyz<tspan
   id="tspan15423"
   style="stroke-width:0.5" /></textPath></text>
      </g>
    </g>
  </g>
</svg>
